<svg width="2000" height="573" viewBox="0 0 2000 573" fill="none" xmlns="http://www.w3.org/2000/svg">
<g id="Group 212">
<g id="Ko&#202;&#187;mak">
<path id="Vector" d="M1998.02 99.5419L1928.72 173.505L2000 302.112H1945.66L1900.56 218.542C1897.06 212.067 1888.47 210.503 1882.91 215.331L1860.9 234.475V302.112H1810.52L1810.52 71.5312H1860.9L1860.9 181.185L1938.82 99.5419H1998.02Z" fill="#044A48" style="fill:#044A48;fill:color(display-p3 0.0157 0.2902 0.2824);fill-opacity:1;"/>
<path id="Vector_2" d="M1652.07 304.16C1639.83 304.16 1628.91 303.192 1619.32 301.256C1609.72 299.206 1601.44 295.847 1594.48 291.179C1587.65 286.51 1582.43 280.191 1578.83 272.22C1575.23 264.135 1573.43 254.058 1573.43 241.988C1573.43 230.487 1575.17 220.866 1578.65 213.123C1582.13 205.38 1587.17 199.231 1593.76 194.676C1600.48 190.008 1608.7 186.648 1618.42 184.599C1628.13 182.549 1639.17 181.524 1651.53 181.524H1710.68C1715.78 181.524 1719.91 177.395 1719.91 172.301C1719.91 162.053 1717.99 153.855 1714.15 147.706C1710.43 141.557 1705.09 137.116 1698.13 134.383C1691.18 131.537 1682.84 130.113 1673.12 130.113C1665.2 130.113 1657.95 131.366 1651.35 133.871C1644.75 136.376 1639.95 139.469 1634.98 145.682C1630 151.895 1625.13 163.728 1625.13 163.728L1575.77 156.075C1578.05 145.258 1582.13 136.148 1588.01 128.747C1594 121.232 1601.32 115.254 1609.96 110.813C1618.6 106.258 1628.25 102.956 1638.93 100.906C1649.61 98.7429 1660.94 97.6611 1672.94 97.6611C1694.05 97.6611 1711.87 100.223 1726.38 105.347C1740.9 110.471 1751.88 118.67 1759.31 129.943C1766.87 141.102 1770.65 156.018 1770.65 174.692V302.11H1728.54L1724.23 277.856C1722.43 280.931 1719.49 284.005 1715.41 287.08C1711.33 290.04 1706.17 292.83 1699.93 295.449C1693.81 298.068 1686.74 300.174 1678.7 301.768C1670.66 303.363 1661.78 304.16 1652.07 304.16ZM1663.4 273.074C1672.76 273.074 1681.22 272.049 1688.78 269.999C1696.33 267.836 1702.69 265.046 1707.85 261.63C1716.51 256.029 1719.19 245.419 1719.19 235.11V207.999H1663.4C1657.89 207.999 1652.73 208.454 1647.93 209.365C1643.25 210.162 1639.17 211.699 1635.69 213.977C1632.21 216.254 1629.51 219.556 1627.59 223.883C1625.68 228.096 1624.72 233.562 1624.72 240.28C1624.72 246.998 1625.68 252.521 1627.59 256.848C1629.51 261.061 1632.21 264.363 1635.69 266.754C1639.29 269.032 1643.43 270.683 1648.11 271.707C1652.79 272.618 1657.89 273.074 1663.4 273.074Z" fill="#044A48" style="fill:#044A48;fill:color(display-p3 0.0157 0.2902 0.2824);fill-opacity:1;"/>
<path id="Vector_3" d="M1240.64 99.7129V302.112H1291.2V177.314C1292.3 163.736 1295.9 153.07 1302 145.317C1309.56 135.866 1319.33 131.14 1331.33 131.14C1342.97 131.14 1351.36 135.41 1356.52 143.95C1361.68 152.49 1364.26 166.268 1364.26 185.284V302.112H1414.64V181.527C1414.64 181.04 1414.64 180.555 1414.64 180.072C1415.45 165.173 1419.11 153.588 1425.62 145.317C1433.18 135.866 1442.9 131.14 1454.77 131.14C1466.53 131.14 1474.87 135.41 1479.79 143.95C1484.7 152.49 1487.16 166.268 1487.16 185.284V302.112H1537.73V181.527C1537.73 158.525 1533.29 138.883 1524.41 122.6C1515.53 106.203 1497.96 98.0049 1471.69 98.0049C1448.65 98.0049 1428.86 106.203 1412.31 122.6C1409.66 125.216 1407.23 127.866 1405.01 130.549C1403.78 127.754 1402.43 125.048 1400.97 122.429C1391.97 106.146 1374.34 98.0049 1348.06 98.0049C1329.36 98.0049 1312.41 103.711 1297.84 114.517C1293.03 118.079 1285.82 116.403 1283.81 110.77L1279.87 99.7129H1240.64Z" fill="#044A48" style="fill:#044A48;fill:color(display-p3 0.0157 0.2902 0.2824);fill-opacity:1;"/>
<path id="Vector_4" d="M1148.83 151.672C1150.99 143.474 1153.75 134.82 1157.11 125.71C1160.47 116.601 1164.07 107.378 1167.9 98.0407C1171.98 88.7035 1175.94 79.9358 1179.78 71.7373H1212.53C1210.37 80.619 1208.09 90.07 1205.69 100.09C1203.53 109.883 1201.49 119.562 1199.58 129.126C1197.66 138.691 1196.1 147.459 1194.9 155.43H1151.35L1148.83 151.672Z" fill="#044A48" style="fill:#044A48;fill:color(display-p3 0.0157 0.2902 0.2824);fill-opacity:1;"/>
<path id="Vector_5" d="M1026.75 303.65C990.646 303.65 964.554 294.939 948.478 277.517C932.403 259.982 924.366 234.191 924.366 200.145C924.366 166.098 932.403 140.478 948.478 123.284C964.554 106.09 990.646 97.4932 1026.75 97.4932C1062.86 97.4932 1088.96 106.09 1105.03 123.284C1121.11 140.478 1129.14 166.098 1129.14 200.145C1129.14 234.191 1121.11 259.982 1105.03 277.517C1088.96 294.939 1062.86 303.65 1026.75 303.65ZM1026.75 270.856C1041.87 270.856 1054.29 266.131 1064 256.68C1073.72 247.115 1078.58 228.384 1078.58 200.486C1078.58 172.475 1073.72 153.744 1064 144.293C1054.29 134.842 1041.87 130.116 1026.75 130.116C1011.64 130.116 999.223 134.842 989.506 144.293C979.789 153.744 974.93 172.475 974.93 200.486C974.93 228.384 979.789 247.115 989.506 256.68C999.223 266.131 1011.64 270.856 1026.75 270.856Z" fill="#044A48" style="fill:#044A48;fill:color(display-p3 0.0157 0.2902 0.2824);fill-opacity:1;"/>
<path id="Vector_6" d="M715.609 302.193V71.5303H764.858V174.047L848.216 71.5303L911.954 71.5303L817.807 187.032L912.476 302.193H848.738L785.218 224.818C778.376 216.484 764.858 221.322 764.858 232.105V302.193H715.609Z" fill="#044A48" style="fill:#044A48;fill:color(display-p3 0.0157 0.2902 0.2824);fill-opacity:1;"/>
</g>
<g id="Loyihasi">
<path id="Vector_7" d="M1402.3 501.123V401.608H1418.88V501.123H1402.3ZM1410.59 380.48C1407.3 380.48 1404.54 379.427 1402.3 377.321C1400.19 375.083 1399.14 372.319 1399.14 369.028C1399.14 365.737 1400.19 363.104 1402.3 361.13C1404.54 359.024 1407.3 357.971 1410.59 357.971C1413.75 357.971 1416.45 359.024 1418.69 361.13C1420.92 363.104 1422.04 365.737 1422.04 369.028C1422.04 372.319 1420.92 375.083 1418.69 377.321C1416.45 379.427 1413.75 380.48 1410.59 380.48Z" fill="#044A48" style="fill:#044A48;fill:color(display-p3 0.0157 0.2902 0.2824);fill-opacity:1;"/>
<path id="Vector_8" d="M1339.12 503.493C1330.83 503.493 1323.59 502.111 1317.4 499.346C1311.35 496.582 1306.48 492.765 1302.79 487.894C1299.24 482.892 1297.07 477.034 1296.28 470.321H1313.26C1313.91 473.743 1315.3 476.903 1317.4 479.799C1319.51 482.695 1322.34 485.064 1325.89 486.907C1329.58 488.618 1334.05 489.474 1339.32 489.474C1343.93 489.474 1347.74 488.816 1350.77 487.499C1353.8 486.051 1356.04 484.143 1357.49 481.773C1359.07 479.404 1359.86 476.837 1359.86 474.073C1359.86 469.992 1358.87 466.898 1356.89 464.792C1355.05 462.686 1352.29 461.041 1348.6 459.856C1344.91 458.54 1340.44 457.421 1335.17 456.499C1330.83 455.71 1326.55 454.656 1322.34 453.34C1318.13 452.024 1314.38 450.313 1311.08 448.206C1307.79 445.969 1305.16 443.27 1303.19 440.111C1301.34 436.952 1300.42 433.068 1300.42 428.461C1300.42 422.801 1301.87 417.799 1304.77 413.455C1307.66 408.979 1311.81 405.491 1317.21 402.99C1322.73 400.489 1329.12 399.238 1336.36 399.238C1347.02 399.238 1355.64 401.805 1362.22 406.939C1368.81 412.073 1372.69 419.51 1373.87 429.251H1357.49C1356.83 424.249 1354.66 420.366 1350.97 417.601C1347.42 414.705 1342.48 413.257 1336.16 413.257C1329.97 413.257 1325.24 414.508 1321.94 417.009C1318.79 419.51 1317.21 422.801 1317.21 426.882C1317.21 429.514 1318.06 431.884 1319.77 433.99C1321.62 435.964 1324.25 437.676 1327.67 439.124C1331.22 440.572 1335.57 441.756 1340.7 442.678C1347.28 443.862 1353.27 445.442 1358.67 447.417C1364.07 449.391 1368.41 452.353 1371.7 456.302C1375.12 460.119 1376.84 465.582 1376.84 472.69C1376.84 478.877 1375.26 484.274 1372.1 488.881C1369.07 493.489 1364.73 497.109 1359.07 499.741C1353.41 502.242 1346.76 503.493 1339.12 503.493Z" fill="#044A48" style="fill:#044A48;fill:color(display-p3 0.0157 0.2902 0.2824);fill-opacity:1;"/>
<path id="Vector_9" d="M1226.59 503.493C1218.56 503.493 1211.84 502.111 1206.45 499.346C1201.05 496.45 1197.03 492.699 1194.4 488.092C1191.77 483.353 1190.45 478.219 1190.45 472.69C1190.45 465.977 1192.16 460.317 1195.59 455.71C1199.14 450.971 1204.08 447.417 1210.4 445.047C1216.85 442.546 1224.41 441.296 1233.1 441.296H1259.36C1259.36 435.109 1258.38 429.975 1256.4 425.894C1254.56 421.682 1251.79 418.523 1248.11 416.417C1244.55 414.31 1240.08 413.257 1234.68 413.257C1228.36 413.257 1222.9 414.837 1218.29 417.996C1213.69 421.155 1210.86 425.828 1209.8 432.015H1192.82C1193.61 424.907 1195.98 418.983 1199.93 414.245C1204.01 409.374 1209.14 405.688 1215.33 403.187C1221.52 400.555 1227.97 399.238 1234.68 399.238C1243.9 399.238 1251.53 400.95 1257.59 404.372C1263.77 407.663 1268.38 412.336 1271.41 418.391C1274.44 424.315 1275.95 431.357 1275.95 439.518V501.123H1261.14L1260.15 483.55C1258.84 486.315 1257.13 488.947 1255.02 491.448C1253.04 493.818 1250.68 495.924 1247.91 497.767C1245.15 499.478 1241.99 500.86 1238.43 501.913C1235.01 502.966 1231.06 503.493 1226.59 503.493ZM1229.15 489.474C1233.76 489.474 1237.91 488.552 1241.59 486.709C1245.41 484.735 1248.64 482.102 1251.27 478.811C1253.9 475.389 1255.88 471.637 1257.19 467.557C1258.64 463.476 1259.36 459.198 1259.36 454.722V454.13H1234.48C1228.03 454.13 1222.83 454.92 1218.89 456.499C1214.94 457.947 1212.11 460.053 1210.4 462.818C1208.68 465.45 1207.83 468.478 1207.83 471.901C1207.83 475.455 1208.62 478.548 1210.2 481.181C1211.91 483.813 1214.34 485.854 1217.5 487.302C1220.79 488.75 1224.68 489.474 1229.15 489.474Z" fill="#044A48" style="fill:#044A48;fill:color(display-p3 0.0157 0.2902 0.2824);fill-opacity:1;"/>
<path id="Vector_10" d="M1080.63 501.122V358.957H1097.22V418.39C1100.51 412.466 1105.11 407.793 1111.04 404.371C1117.09 400.948 1123.67 399.237 1130.78 399.237C1138.42 399.237 1145.07 400.817 1150.73 403.976C1156.39 407.004 1160.73 411.677 1163.76 417.995C1166.79 424.314 1168.3 432.278 1168.3 441.887V501.122H1151.91V443.664C1151.91 433.66 1149.8 426.156 1145.59 421.154C1141.38 416.021 1135.26 413.454 1127.23 413.454C1121.57 413.454 1116.43 414.836 1111.83 417.6C1107.35 420.365 1103.8 424.314 1101.17 429.447C1098.53 434.581 1097.22 440.9 1097.22 448.403V501.122H1080.63Z" fill="#044A48" style="fill:#044A48;fill:color(display-p3 0.0157 0.2902 0.2824);fill-opacity:1;"/>
<path id="Vector_11" d="M1034.78 501.123V401.608H1051.36V501.123H1034.78ZM1043.07 380.48C1039.78 380.48 1037.01 379.427 1034.78 377.321C1032.67 375.083 1031.62 372.319 1031.62 369.028C1031.62 365.737 1032.67 363.104 1034.78 361.13C1037.01 359.024 1039.78 357.971 1043.07 357.971C1046.23 357.971 1048.93 359.024 1051.16 361.13C1053.4 363.104 1054.52 365.737 1054.52 369.028C1054.52 372.319 1053.4 375.083 1051.16 377.321C1048.93 379.427 1046.23 380.48 1043.07 380.48Z" fill="#044A48" style="fill:#044A48;fill:color(display-p3 0.0157 0.2902 0.2824);fill-opacity:1;"/>
<path id="Vector_12" d="M934.338 544.565L958.625 490.068H952.899L913.803 401.609H931.771L964.153 477.628L998.115 401.609H1015.29L951.714 544.565H934.338Z" fill="#044A48" style="fill:#044A48;fill:color(display-p3 0.0157 0.2902 0.2824);fill-opacity:1;"/>
<path id="Vector_13" d="M858.767 503.493C849.553 503.493 841.26 501.387 833.889 497.174C826.517 492.83 820.725 486.775 816.513 479.009C812.3 471.111 810.194 461.962 810.194 451.563C810.194 440.901 812.3 431.686 816.513 423.92C820.857 416.022 826.714 409.966 834.086 405.754C841.589 401.41 849.948 399.238 859.162 399.238C868.64 399.238 876.999 401.41 884.239 405.754C891.61 409.966 897.402 416.022 901.614 423.92C905.958 431.686 908.13 440.835 908.13 451.366C908.13 461.896 905.958 471.111 901.614 479.009C897.271 486.775 891.413 492.83 884.041 497.174C876.67 501.387 868.245 503.493 858.767 503.493ZM858.965 489.276C864.625 489.276 869.891 487.894 874.761 485.13C879.632 482.234 883.581 477.956 886.608 472.295C889.636 466.635 891.15 459.659 891.15 451.366C891.15 442.941 889.636 435.964 886.608 430.436C883.712 424.775 879.829 420.563 874.958 417.799C870.22 414.903 864.954 413.455 859.162 413.455C853.634 413.455 848.368 414.903 843.366 417.799C838.496 420.563 834.547 424.775 831.519 430.436C828.623 435.964 827.175 442.941 827.175 451.366C827.175 459.659 828.623 466.635 831.519 472.295C834.547 477.956 838.43 482.234 843.169 485.13C848.039 487.894 853.305 489.276 858.965 489.276Z" fill="#044A48" style="fill:#044A48;fill:color(display-p3 0.0157 0.2902 0.2824);fill-opacity:1;"/>
<path id="Vector_14" d="M715.445 501.123V362.906H732.031V487.893H796.401V501.123H715.445Z" fill="#044A48" style="fill:#044A48;fill:color(display-p3 0.0157 0.2902 0.2824);fill-opacity:1;"/>
</g>
<g id="Group 85">
<path id="Ellipse 23" fill-rule="evenodd" clip-rule="evenodd" d="M185.793 287.262C185.793 382.098 240.67 505.456 329.67 569.684C121.319 597 0.00040175 431.221 0.00040175 287.262C0.00040175 263.754 2.74717 242.365 6.93306 223.418C21.7153 156.509 58.8206 74.9126 0.33396 39.2101C0.33396 39.2101 20.3239 0.493164 90.5806 0.493164C160.837 0.493164 215.288 68.2682 215.288 123.878C215.288 179.488 185.793 192.427 185.793 287.262Z" fill="#45C48A" style="fill:#45C48A;fill:color(display-p3 0.2706 0.7686 0.5412);fill-opacity:1;"/>
<path id="Ellipse 28" fill-rule="evenodd" clip-rule="evenodd" d="M514.723 356.768C514.723 382.906 502.032 418.277 448.855 432.533C395.678 446.789 345.254 477.355 332.622 535.15C291.608 495.531 275.202 438.603 293.494 386.188C313.436 325.752 362.808 295.301 406.282 288.656C489.705 277.829 513.165 322.37 514.723 356.768Z" fill="#45C48A" style="fill:#45C48A;fill:color(display-p3 0.2706 0.7686 0.5412);fill-opacity:1;"/>
<path id="Ellipse 26" fill-rule="evenodd" clip-rule="evenodd" d="M572.8 85.7191C572.8 54.496 563.747 25.3876 548.123 0.87475C540.429 0.294788 532.656 6.84593e-10 524.814 6.52481e-10C365.762 0 295.136 82.6841 271.594 115.085C248.052 147.486 211.221 208.023 214.727 302.829C216.114 340.333 231.072 394.964 257.895 437.947C254.532 330.982 331.966 271.625 436.256 242.334C490.684 227.047 522.761 206.513 543.538 177.361C561.963 151.512 572.8 119.881 572.8 85.7191Z" fill="#45C48A" style="fill:#45C48A;fill:color(display-p3 0.2706 0.7686 0.5412);fill-opacity:1;"/>
</g>
</g>
</svg>
