<svg width="573" height="573" viewBox="0 0 573 573" fill="none" xmlns="http://www.w3.org/2000/svg">
<g id="Group 85">
<path id="Ellipse 23" fill-rule="evenodd" clip-rule="evenodd" d="M185.793 287.262C185.793 382.098 240.67 505.456 329.67 569.684C121.319 597 0.00040175 431.221 0.00040175 287.262C0.00040175 263.754 2.74717 242.365 6.93306 223.418C21.7153 156.509 58.8206 74.9126 0.33396 39.2101C0.33396 39.2101 20.3239 0.493164 90.5806 0.493164C160.837 0.493164 215.288 68.2682 215.288 123.878C215.288 179.488 185.793 192.427 185.793 287.262Z" fill="#45C48A" style="fill:#45C48A;fill:color(display-p3 0.2706 0.7686 0.5412);fill-opacity:1;"/>
<path id="Ellipse 28" fill-rule="evenodd" clip-rule="evenodd" d="M514.724 356.768C514.724 382.906 502.032 418.277 448.855 432.533C395.678 446.789 345.254 477.355 332.622 535.15C291.608 495.531 275.203 438.603 293.495 386.188C313.437 325.752 362.808 295.301 406.283 288.656C489.705 277.829 513.165 322.37 514.724 356.768Z" fill="#45C48A" style="fill:#45C48A;fill:color(display-p3 0.2706 0.7686 0.5412);fill-opacity:1;"/>
<path id="Ellipse 26" fill-rule="evenodd" clip-rule="evenodd" d="M572.8 85.7191C572.8 54.496 563.747 25.3876 548.123 0.87475C540.429 0.294788 532.656 6.84593e-10 524.814 6.52481e-10C365.762 0 295.136 82.6841 271.594 115.085C248.052 147.486 211.221 208.023 214.727 302.829C216.114 340.333 231.072 394.964 257.895 437.947C254.532 330.982 331.966 271.625 436.256 242.334C490.684 227.047 522.761 206.513 543.538 177.361C561.963 151.512 572.8 119.881 572.8 85.7191Z" fill="#45C48A" style="fill:#45C48A;fill:color(display-p3 0.2706 0.7686 0.5412);fill-opacity:1;"/>
</g>
</svg>
