<svg width="573" height="573" viewBox="0 0 573 573" fill="none" xmlns="http://www.w3.org/2000/svg">
<g id="Group 214">
<path id="Ellipse 23" fill-rule="evenodd" clip-rule="evenodd" d="M185.793 287.263C185.793 382.099 240.67 505.457 329.67 569.685C121.319 597.001 0.00040175 431.222 0.00040175 287.263C0.00040175 263.755 2.74717 242.366 6.93306 223.419C21.7153 156.51 58.8206 74.9136 0.33396 39.2111C0.33396 39.2111 20.3239 0.494141 90.5806 0.494141C160.837 0.494141 215.288 68.2691 215.288 123.879C215.288 179.489 185.793 192.428 185.793 287.263Z" fill="white" style="fill:white;fill-opacity:1;"/>
<path id="Ellipse 28" fill-rule="evenodd" clip-rule="evenodd" d="M514.724 356.769C514.724 382.907 502.032 418.278 448.855 432.534C395.678 446.79 345.254 477.356 332.622 535.151C291.608 495.532 275.203 438.604 293.495 386.189C313.437 325.753 362.808 295.302 406.283 288.657C489.705 277.83 513.165 322.371 514.724 356.769Z" fill="white" style="fill:white;fill-opacity:1;"/>
<path id="Ellipse 26" fill-rule="evenodd" clip-rule="evenodd" d="M572.8 85.7191C572.8 54.496 563.747 25.3876 548.123 0.87475C540.429 0.294788 532.656 6.84593e-10 524.814 6.52481e-10C365.762 0 295.136 82.6841 271.594 115.085C248.052 147.486 211.221 208.023 214.727 302.829C216.114 340.333 231.072 394.964 257.895 437.947C254.532 330.982 331.966 271.625 436.256 242.334C490.684 227.047 522.761 206.513 543.538 177.361C561.963 151.512 572.8 119.881 572.8 85.7191Z" fill="white" style="fill:white;fill-opacity:1;"/>
</g>
</svg>
