<svg width="1647" height="1500" viewBox="0 0 1647 1500" fill="none" xmlns="http://www.w3.org/2000/svg">
<g id="Group 215">
<g id="Group 208">
<g id="Ko&#202;&#187;mak">
<path id="Vector" d="M1644.43 929.349L1555.56 1024.19L1646.97 1189.1H1577.29L1519.45 1081.94C1514.97 1073.64 1503.95 1071.63 1496.83 1077.83L1468.6 1102.37V1189.1H1404L1404 893.432H1468.6L1468.6 1034.04L1568.52 929.349H1644.43Z" fill="white" style="fill:white;fill-opacity:1;"/>
<path id="Vector_2" d="M1200.82 1191.73C1185.13 1191.73 1171.13 1190.49 1158.82 1188.01C1146.52 1185.38 1135.9 1181.07 1126.98 1175.09C1118.21 1169.1 1111.52 1161 1106.91 1150.78C1102.29 1140.41 1099.98 1127.49 1099.98 1112.01C1099.98 1097.26 1102.21 1084.92 1106.68 1075C1111.14 1065.07 1117.6 1057.18 1126.06 1051.34C1134.67 1045.35 1145.21 1041.05 1157.67 1038.42C1170.13 1035.79 1184.28 1034.48 1200.13 1034.48H1275.98C1282.51 1034.48 1287.81 1029.18 1287.81 1022.65C1287.81 1009.51 1285.35 998.996 1280.43 991.112C1275.66 983.227 1268.81 977.532 1259.89 974.028C1250.97 970.378 1240.28 968.553 1227.82 968.553C1217.66 968.553 1208.36 970.159 1199.9 973.371C1191.44 976.583 1185.28 980.55 1178.9 988.516C1172.52 996.483 1166.28 1011.66 1166.28 1011.66L1102.98 1001.84C1105.91 987.972 1111.14 976.291 1118.67 966.801C1126.37 957.164 1135.75 949.498 1146.82 943.804C1157.9 937.963 1170.28 933.729 1183.97 931.101C1197.67 928.327 1212.2 926.939 1227.59 926.939C1254.66 926.939 1277.5 930.225 1296.12 936.795C1314.73 943.366 1328.8 953.879 1338.34 968.334C1348.03 982.643 1352.88 1001.77 1352.88 1025.72V1189.1H1298.88L1293.35 1158C1291.04 1161.95 1287.27 1165.89 1282.04 1169.83C1276.81 1173.63 1270.2 1177.2 1262.2 1180.56C1254.35 1183.92 1245.28 1186.62 1234.97 1188.67C1224.66 1190.71 1213.28 1191.73 1200.82 1191.73ZM1215.36 1151.87C1227.35 1151.87 1238.2 1150.56 1247.89 1147.93C1257.58 1145.15 1265.73 1141.58 1272.35 1137.2C1283.45 1130.01 1286.89 1116.41 1286.89 1103.19V1068.42H1215.36C1208.28 1068.42 1201.66 1069.01 1195.51 1070.18C1189.51 1071.2 1184.28 1073.17 1179.82 1076.09C1175.36 1079.01 1171.9 1083.24 1169.44 1088.79C1166.98 1094.2 1165.75 1101.2 1165.75 1109.82C1165.75 1118.43 1166.98 1125.52 1169.44 1131.06C1171.9 1136.47 1175.36 1140.7 1179.82 1143.77C1184.44 1146.69 1189.74 1148.8 1195.74 1150.12C1201.74 1151.29 1208.28 1151.87 1215.36 1151.87Z" fill="white" style="fill:white;fill-opacity:1;"/>
<path id="Vector_3" d="M673.242 929.567V1189.1H738.081V1029.08C739.486 1011.66 744.101 997.987 751.925 988.045C761.616 975.926 774.154 969.866 789.536 969.866C804.458 969.866 815.226 975.342 821.841 986.293C828.455 997.243 831.763 1014.91 831.763 1039.29V1189.1H896.371V1034.48C896.371 1033.85 896.368 1033.23 896.363 1032.61C897.405 1013.51 902.1 998.651 910.446 988.045C920.137 975.926 932.598 969.866 947.827 969.866C962.902 969.866 973.593 975.342 979.9 986.293C986.207 997.243 989.361 1014.91 989.361 1039.29V1189.1H1054.2V1034.48C1054.2 1004.98 1048.51 979.795 1037.12 958.915C1025.74 937.89 1003.21 927.377 969.517 927.377C939.981 927.377 914.6 937.89 893.371 958.915C889.984 962.27 886.867 965.668 884.02 969.108C882.443 965.524 880.714 962.054 878.834 958.696C867.297 937.817 844.684 927.377 810.996 927.377C787.008 927.377 765.277 934.693 746.587 948.55C740.426 953.117 731.181 950.969 728.603 943.746L723.544 929.567H673.242Z" fill="white" style="fill:white;fill-opacity:1;"/>
<path id="Vector_4" d="M555.519 996.193C558.288 985.681 561.826 974.584 566.133 962.903C570.44 951.222 575.055 939.395 579.978 927.422C585.208 915.449 590.284 904.206 595.207 893.693H637.202C634.433 905.082 631.51 917.201 628.434 930.05C625.665 942.607 623.05 955.018 620.588 967.283C618.127 979.548 616.127 990.791 614.589 1001.01H558.749L555.519 996.193Z" fill="white" style="fill:white;fill-opacity:1;"/>
<path id="Vector_5" d="M398.982 1191.08C352.679 1191.08 319.221 1179.91 298.608 1157.57C277.995 1135.08 267.688 1102.01 267.688 1058.35C267.688 1014.69 277.995 981.842 298.608 959.794C319.221 937.747 352.679 926.723 398.982 926.723C445.284 926.723 478.742 937.747 499.355 959.794C519.968 981.842 530.275 1014.69 530.275 1058.35C530.275 1102.01 519.968 1135.08 499.355 1157.57C478.742 1179.91 445.284 1191.08 398.982 1191.08ZM398.982 1149.03C418.364 1149.03 434.285 1142.97 446.745 1130.85C459.206 1118.58 465.436 1094.56 465.436 1058.79C465.436 1022.87 459.206 998.852 446.745 986.733C434.285 974.614 418.364 968.555 398.982 968.555C379.599 968.555 363.678 974.614 351.218 986.733C338.757 998.852 332.527 1022.87 332.527 1058.79C332.527 1094.56 338.757 1118.58 351.218 1130.85C363.678 1142.97 379.599 1149.03 398.982 1149.03Z" fill="white" style="fill:white;fill-opacity:1;"/>
<path id="Vector_6" d="M0 1189.21V893.432H63.1518V1024.89L170.041 893.432L251.772 893.432L131.047 1041.54L252.441 1189.21H170.711L89.2592 1089.99C80.4858 1079.31 63.1518 1085.51 63.1518 1099.34V1189.21H0Z" fill="white" style="fill:white;fill-opacity:1;"/>
</g>
<g id="Loyihasi">
<path id="Vector_7" d="M1251 1444.3V1316.69H1272.26V1444.3H1251ZM1261.63 1289.6C1257.41 1289.6 1253.87 1288.25 1251 1285.55C1248.3 1282.68 1246.95 1279.13 1246.95 1274.91C1246.95 1270.69 1248.3 1267.32 1251 1264.78C1253.87 1262.08 1257.41 1260.73 1261.63 1260.73C1265.68 1260.73 1269.14 1262.08 1272.01 1264.78C1274.88 1267.32 1276.32 1270.69 1276.32 1274.91C1276.32 1279.13 1274.88 1282.68 1272.01 1285.55C1269.14 1288.25 1265.68 1289.6 1261.63 1289.6Z" fill="white" style="fill:white;fill-opacity:1;"/>
<path id="Vector_8" d="M1169.99 1447.34C1159.35 1447.34 1150.07 1445.56 1142.14 1442.02C1134.37 1438.47 1128.13 1433.58 1123.4 1427.33C1118.84 1420.92 1116.06 1413.41 1115.04 1404.8H1136.82C1137.66 1409.19 1139.44 1413.24 1142.14 1416.95C1144.84 1420.67 1148.47 1423.7 1153.02 1426.07C1157.75 1428.26 1163.49 1429.36 1170.24 1429.36C1176.15 1429.36 1181.04 1428.51 1184.93 1426.83C1188.81 1424.97 1191.68 1422.52 1193.53 1419.48C1195.56 1416.45 1196.57 1413.15 1196.57 1409.61C1196.57 1404.38 1195.31 1400.41 1192.77 1397.71C1190.41 1395.01 1186.87 1392.9 1182.14 1391.38C1177.41 1389.69 1171.68 1388.26 1164.92 1387.08C1159.35 1386.06 1153.87 1384.71 1148.47 1383.02C1143.06 1381.34 1138.25 1379.14 1134.03 1376.44C1129.81 1373.57 1126.44 1370.11 1123.91 1366.06C1121.54 1362.01 1120.36 1357.03 1120.36 1351.12C1120.36 1343.86 1122.22 1337.45 1125.93 1331.88C1129.65 1326.14 1134.96 1321.67 1141.88 1318.46C1148.97 1315.25 1157.16 1313.65 1166.44 1313.65C1180.11 1313.65 1191.17 1316.94 1199.61 1323.52C1208.05 1330.11 1213.03 1339.64 1214.55 1352.14H1193.53C1192.69 1345.72 1189.9 1340.74 1185.18 1337.2C1180.62 1333.48 1174.29 1331.63 1166.19 1331.63C1158.26 1331.63 1152.18 1333.23 1147.96 1336.44C1143.91 1339.64 1141.88 1343.86 1141.88 1349.1C1141.88 1352.47 1142.98 1355.51 1145.17 1358.21C1147.54 1360.74 1150.91 1362.94 1155.3 1364.8C1159.86 1366.65 1165.43 1368.17 1172.01 1369.35C1180.45 1370.87 1188.13 1372.9 1195.05 1375.43C1201.97 1377.96 1207.54 1381.76 1211.76 1386.82C1216.15 1391.72 1218.35 1398.72 1218.35 1407.84C1218.35 1415.77 1216.32 1422.69 1212.27 1428.6C1208.39 1434.51 1202.82 1439.15 1195.56 1442.52C1188.3 1445.73 1179.78 1447.34 1169.99 1447.34Z" fill="white" style="fill:white;fill-opacity:1;"/>
<path id="Vector_9" d="M1025.68 1447.34C1015.39 1447.34 1006.78 1445.56 999.856 1442.02C992.936 1438.3 987.787 1433.49 984.412 1427.59C981.036 1421.51 979.348 1414.93 979.348 1407.84C979.348 1399.23 981.542 1391.97 985.931 1386.06C990.488 1379.99 996.818 1375.43 1004.92 1372.39C1013.19 1369.18 1022.9 1367.58 1034.04 1367.58H1067.71C1067.71 1359.65 1066.45 1353.06 1063.91 1347.83C1061.55 1342.43 1058.01 1338.38 1053.28 1335.68C1048.72 1332.98 1042.98 1331.63 1036.06 1331.63C1027.96 1331.63 1020.96 1333.65 1015.05 1337.7C1009.14 1341.75 1005.51 1347.75 1004.16 1355.68H982.386C983.399 1346.57 986.437 1338.97 991.501 1332.89C996.734 1326.65 1003.32 1321.92 1011.25 1318.71C1019.18 1315.34 1027.45 1313.65 1036.06 1313.65C1047.88 1313.65 1057.67 1315.84 1065.43 1320.23C1073.37 1324.45 1079.27 1330.45 1083.16 1338.21C1087.04 1345.81 1088.98 1354.84 1088.98 1365.3V1444.3H1069.99L1068.72 1421.76C1067.04 1425.31 1064.84 1428.68 1062.14 1431.89C1059.61 1434.93 1056.57 1437.63 1053.03 1439.99C1049.48 1442.19 1045.43 1443.96 1040.87 1445.31C1036.48 1446.66 1031.42 1447.34 1025.68 1447.34ZM1028.97 1429.36C1034.88 1429.36 1040.2 1428.18 1044.92 1425.81C1049.82 1423.28 1053.95 1419.91 1057.33 1415.69C1060.71 1411.3 1063.24 1406.49 1064.93 1401.25C1066.78 1396.02 1067.71 1390.54 1067.71 1384.8V1384.04H1035.81C1027.54 1384.04 1020.87 1385.05 1015.81 1387.08C1010.74 1388.93 1007.11 1391.63 1004.92 1395.18C1002.73 1398.55 1001.63 1402.44 1001.63 1406.82C1001.63 1411.38 1002.64 1415.35 1004.67 1418.72C1006.86 1422.1 1009.98 1424.72 1014.04 1426.57C1018.25 1428.43 1023.23 1429.36 1028.97 1429.36Z" fill="white" style="fill:white;fill-opacity:1;"/>
<path id="Vector_10" d="M838.523 1444.29V1261.99H859.791V1338.2C864.011 1330.61 869.919 1324.62 877.514 1320.23C885.279 1315.84 893.719 1313.65 902.834 1313.65C912.624 1313.65 921.148 1315.67 928.406 1319.72C935.664 1323.6 941.234 1329.6 945.117 1337.7C948.999 1345.8 950.94 1356.01 950.94 1368.33V1444.29H929.925V1370.61C929.925 1357.78 927.224 1348.16 921.823 1341.75C916.422 1335.17 908.573 1331.87 898.276 1331.87C891.018 1331.87 884.435 1333.65 878.527 1337.19C872.788 1340.74 868.231 1345.8 864.855 1352.38C861.479 1358.97 859.791 1367.07 859.791 1376.69V1444.29H838.523Z" fill="white" style="fill:white;fill-opacity:1;"/>
<path id="Vector_11" d="M779.723 1444.3V1316.69H800.991V1444.3H779.723ZM790.357 1289.6C786.137 1289.6 782.593 1288.25 779.723 1285.55C777.022 1282.68 775.672 1279.13 775.672 1274.91C775.672 1270.69 777.022 1267.32 779.723 1264.78C782.593 1262.08 786.137 1260.73 790.357 1260.73C794.408 1260.73 797.869 1262.08 800.738 1264.78C803.608 1267.32 805.042 1270.69 805.042 1274.91C805.042 1279.13 803.608 1282.68 800.738 1285.55C797.869 1288.25 794.408 1289.6 790.357 1289.6Z" fill="white" style="fill:white;fill-opacity:1;"/>
<path id="Vector_12" d="M650.934 1500L682.076 1430.12H674.734L624.602 1316.69H647.642L689.166 1414.17L732.715 1316.69H754.742L673.215 1500H650.934Z" fill="white" style="fill:white;fill-opacity:1;"/>
<path id="Vector_13" d="M554.028 1447.34C542.213 1447.34 531.579 1444.63 522.126 1439.23C512.674 1433.66 505.247 1425.9 499.845 1415.94C494.444 1405.81 491.743 1394.08 491.743 1380.75C491.743 1367.07 494.444 1355.26 499.845 1345.3C505.415 1335.17 512.927 1327.41 522.379 1322.01C532.001 1316.44 542.719 1313.65 554.535 1313.65C566.688 1313.65 577.406 1316.44 586.69 1322.01C596.142 1327.41 603.569 1335.17 608.971 1345.3C614.541 1355.26 617.326 1366.99 617.326 1380.49C617.326 1394 614.541 1405.81 608.971 1415.94C603.401 1425.9 595.889 1433.66 586.437 1439.23C576.984 1444.63 566.181 1447.34 554.028 1447.34ZM554.281 1429.11C561.54 1429.11 568.291 1427.33 574.537 1423.79C580.782 1420.08 585.846 1414.59 589.728 1407.33C593.611 1400.07 595.552 1391.13 595.552 1380.49C595.552 1369.69 593.611 1360.74 589.728 1353.65C586.015 1346.4 581.035 1341 574.79 1337.45C568.713 1333.74 561.962 1331.88 554.535 1331.88C547.445 1331.88 540.693 1333.74 534.279 1337.45C528.034 1341 522.97 1346.4 519.088 1353.65C515.374 1360.74 513.518 1369.69 513.518 1380.49C513.518 1391.13 515.374 1400.07 519.088 1407.33C522.97 1414.59 527.95 1420.08 534.026 1423.79C540.272 1427.33 547.023 1429.11 554.281 1429.11Z" fill="white" style="fill:white;fill-opacity:1;"/>
<path id="Vector_14" d="M370.248 1444.29V1267.06H391.516V1427.33H474.057V1444.29H370.248Z" fill="white" style="fill:white;fill-opacity:1;"/>
</g>
</g>
<g id="Group 91">
<path id="Ellipse 23" fill-rule="evenodd" clip-rule="evenodd" d="M695.372 368.354C695.372 489.96 765.74 648.143 879.864 730.501C612.697 765.528 457.13 552.951 457.13 368.354C457.13 338.209 460.652 310.782 466.02 286.486C484.975 200.689 532.555 96.0584 457.558 50.2774C457.558 50.2774 483.191 0.630859 573.281 0.630859C663.371 0.630859 733.193 87.5384 733.193 158.847C733.193 230.156 695.372 246.747 695.372 368.354Z" fill="white" style="fill:white;fill-opacity:1;"/>
<path id="Ellipse 28" fill-rule="evenodd" clip-rule="evenodd" d="M1117.16 457.479C1117.16 490.996 1100.89 536.352 1032.7 554.633C964.508 572.913 899.85 612.107 883.651 686.218C831.059 635.414 810.022 562.416 833.479 495.204C859.05 417.707 922.359 378.66 978.106 370.14C1085.08 356.256 1115.16 413.371 1117.16 457.479Z" fill="white" style="fill:white;fill-opacity:1;"/>
<path id="Ellipse 26" fill-rule="evenodd" clip-rule="evenodd" d="M1191.63 109.917C1191.63 69.8799 1180.02 32.5544 1159.99 1.12169C1150.12 0.378004 1140.15 8.77849e-10 1130.1 8.36673e-10C926.145 0 835.582 106.025 805.394 147.573C775.206 189.121 727.979 266.746 732.474 388.316C734.252 436.408 753.433 506.46 787.828 561.576C783.516 424.417 882.809 348.303 1016.54 310.743C1086.33 291.142 1127.46 264.81 1154.11 227.43C1177.73 194.283 1191.63 153.723 1191.63 109.917Z" fill="white" style="fill:white;fill-opacity:1;"/>
</g>
</g>
</svg>
