<svg width="4588" height="831" viewBox="0 0 4588 831" fill="none" xmlns="http://www.w3.org/2000/svg">
<g id="Ko&#202;&#187;mak">
<path id="Vector" d="M4580.84 100.056L4333.28 364.257L4587.91 823.647H4393.79L4232.7 525.132C4220.22 502.003 4189.51 496.414 4169.68 513.66L4091.05 582.043V823.647H3911.07L3911.07 0H4091.05L4091.05 391.689L4369.37 100.056H4580.84Z" fill="white" style="fill:white;fill-opacity:1;"/>
<path id="Vector_2" d="M3345.08 830.966C3301.37 830.966 3262.38 827.509 3228.1 820.594C3193.82 813.273 3164.25 801.274 3139.39 784.598C3114.97 767.921 3096.33 745.347 3083.47 716.875C3070.62 687.997 3064.19 652 3064.19 608.886C3064.19 567.805 3070.4 533.435 3082.83 505.777C3095.26 478.119 3113.25 456.155 3136.82 439.885C3160.82 423.209 3190.17 411.21 3224.88 403.888C3259.59 396.567 3299.02 392.906 3343.15 392.906H3554.46C3572.66 392.906 3587.41 378.156 3587.41 359.96C3587.41 323.354 3580.55 294.068 3566.84 272.104C3553.56 250.14 3534.49 234.277 3509.63 224.516C3484.78 214.347 3455 209.263 3420.29 209.263C3392 209.263 3366.08 213.737 3342.51 222.685C3318.94 231.634 3301.8 242.683 3284.03 264.875C3266.26 287.067 3248.87 329.337 3248.87 329.337L3072.54 302C3080.69 263.359 3095.26 230.82 3116.25 204.382C3137.68 177.537 3163.82 156.183 3194.67 140.32C3225.53 124.051 3260.02 112.255 3298.16 104.934C3336.3 97.2058 3376.79 93.3418 3419.64 93.3418C3495.06 93.3418 3558.7 102.493 3610.55 120.797C3662.4 139.1 3701.61 168.385 3728.18 208.653C3755.17 248.513 3768.67 301.796 3768.67 368.502V823.645H3618.26L3602.84 737.009C3596.41 747.991 3585.91 758.973 3571.34 769.955C3556.77 780.53 3538.34 790.496 3516.06 799.851C3494.21 809.206 3468.92 816.73 3440.21 822.425C3411.5 828.119 3379.79 830.966 3345.08 830.966ZM3385.58 719.926C3419 719.926 3449.21 716.265 3476.21 708.944C3503.21 701.216 3525.92 691.251 3544.34 679.048C3575.26 659.041 3584.84 621.14 3584.84 584.316V487.474H3385.58C3365.87 487.474 3347.44 489.101 3330.3 492.354C3313.59 495.202 3299.02 500.693 3286.59 508.827C3274.16 516.962 3264.52 528.758 3257.66 544.214C3250.81 559.263 3247.38 578.787 3247.38 602.785C3247.38 626.782 3250.81 646.509 3257.66 661.965C3264.52 677.015 3274.16 688.81 3286.59 697.352C3299.44 705.487 3314.23 711.384 3330.94 715.045C3347.65 718.299 3365.87 719.926 3385.58 719.926Z" fill="white" style="fill:white;fill-opacity:1;"/>
<path id="Vector_3" d="M1875.43 100.669V823.651H2056.05V377.867C2059.96 329.365 2072.82 291.265 2094.62 263.569C2121.61 229.81 2156.54 212.93 2199.39 212.93C2240.95 212.93 2270.95 228.183 2289.38 258.688C2307.8 289.194 2317.02 338.409 2317.02 406.335V823.651H2496.99V392.913C2496.99 391.175 2496.99 389.442 2496.97 387.715C2499.88 334.496 2512.95 293.114 2536.2 263.569C2563.2 229.81 2597.91 212.93 2640.33 212.93C2682.33 212.93 2712.11 228.183 2729.68 258.688C2747.25 289.194 2756.03 338.409 2756.03 406.335V823.651H2936.65V392.913C2936.65 310.751 2920.8 240.588 2889.09 182.424C2857.38 123.854 2794.6 94.5684 2700.75 94.5684C2618.48 94.5684 2547.77 123.854 2488.64 182.424C2479.2 191.77 2470.52 201.234 2462.59 210.818C2458.2 200.834 2453.38 191.167 2448.14 181.814C2416 123.65 2353.01 94.5684 2259.17 94.5684C2192.34 94.5684 2131.81 114.95 2079.75 153.549C2062.58 166.273 2036.83 160.287 2029.65 140.166L2015.55 100.669H1875.43Z" fill="white" style="fill:white;fill-opacity:1;"/>
<path id="Vector_4" d="M1547.49 286.272C1555.2 256.987 1565.06 226.075 1577.06 193.535C1589.06 160.996 1601.91 128.05 1615.63 94.6974C1630.19 61.3446 1644.34 30.0256 1658.05 0.740234H1775.03C1767.32 32.466 1759.18 66.2255 1750.61 102.019C1742.89 136.998 1735.61 171.571 1728.75 205.738C1721.9 239.904 1716.33 271.223 1712.04 299.695H1556.49L1547.49 286.272Z" fill="white" style="fill:white;fill-opacity:1;"/>
<path id="Vector_5" d="M1111.43 829.144C982.445 829.144 889.243 798.028 831.821 735.797C774.4 673.159 745.689 581.032 745.689 459.417C745.689 337.801 774.4 246.285 831.821 184.867C889.243 123.449 982.445 92.7402 1111.43 92.7402C1240.41 92.7402 1333.62 123.449 1391.04 184.867C1448.46 246.285 1477.17 337.801 1477.17 459.417C1477.17 581.032 1448.46 673.159 1391.04 735.797C1333.62 798.028 1240.41 829.144 1111.43 829.144ZM1111.43 712.003C1165.42 712.003 1209.77 695.123 1244.48 661.364C1279.19 627.197 1296.55 560.289 1296.55 460.637C1296.55 360.579 1279.19 293.67 1244.48 259.911C1209.77 226.151 1165.42 209.271 1111.43 209.271C1057.44 209.271 1013.08 226.151 978.374 259.911C943.664 293.67 926.31 360.579 926.31 460.637C926.31 560.289 943.664 627.197 978.374 661.364C1013.08 695.123 1057.44 712.003 1111.43 712.003Z" fill="white" style="fill:white;fill-opacity:1;"/>
<path id="Vector_6" d="M0 823.939V0H175.92V366.195L473.679 0L701.354 0L365.054 412.58L703.219 823.939H475.544L248.647 547.553C224.207 517.783 175.92 535.065 175.92 573.582V823.939H0Z" fill="white" style="fill:white;fill-opacity:1;"/>
</g>
</svg>
