<svg width="494" height="259" viewBox="0 0 494 259" fill="none" xmlns="http://www.w3.org/2000/svg">
<rect y="258.341" width="258.341" height="493.718" rx="8.61136" transform="rotate(-90 0 258.341)" fill="white"/>
<path d="M335.628 165.133L326.006 175.401L335.903 193.256H328.358L322.097 181.654C321.612 180.755 320.418 180.538 319.647 181.208L316.591 183.866V193.256H309.596L309.596 161.244H316.591L316.591 176.467L327.409 165.133H335.628Z" fill="#0E3B2A"/>
<path d="M287.599 193.541C285.9 193.541 284.384 193.406 283.052 193.137C281.72 192.853 280.571 192.387 279.605 191.738C278.655 191.09 277.931 190.213 277.431 189.106C276.931 187.984 276.682 186.585 276.682 184.909C276.682 183.312 276.923 181.977 277.406 180.902C277.889 179.827 278.589 178.973 279.505 178.341C280.437 177.693 281.578 177.226 282.927 176.942C284.276 176.657 285.808 176.515 287.524 176.515H295.737C296.444 176.515 297.017 175.942 297.017 175.234C297.017 173.812 296.751 172.673 296.218 171.82C295.701 170.966 294.96 170.35 293.994 169.97C293.028 169.575 291.871 169.377 290.522 169.377C289.423 169.377 288.415 169.551 287.499 169.899C286.583 170.247 285.917 170.676 285.226 171.539C284.535 172.401 283.859 174.044 283.859 174.044L277.006 172.982C277.323 171.48 277.889 170.215 278.705 169.188C279.538 168.144 280.554 167.314 281.753 166.698C282.952 166.065 284.293 165.607 285.775 165.322C287.257 165.022 288.831 164.872 290.497 164.872C293.428 164.872 295.901 165.228 297.917 165.939C299.932 166.65 301.456 167.789 302.488 169.354C303.538 170.903 304.062 172.974 304.062 175.566V193.256H298.216L297.617 189.889C297.367 190.316 296.959 190.742 296.393 191.169C295.826 191.58 295.11 191.968 294.244 192.331C293.395 192.695 292.412 192.987 291.296 193.209C290.18 193.43 288.948 193.541 287.599 193.541ZM289.173 189.225C290.472 189.225 291.646 189.083 292.695 188.798C293.745 188.498 294.627 188.11 295.343 187.636C296.545 186.858 296.917 185.385 296.917 183.954V180.19H289.173C288.407 180.19 287.69 180.254 287.024 180.38C286.375 180.491 285.808 180.704 285.325 181.02C284.842 181.336 284.468 181.795 284.201 182.396C283.935 182.981 283.802 183.739 283.802 184.672C283.802 185.605 283.935 186.371 284.201 186.972C284.468 187.557 284.842 188.015 285.325 188.347C285.825 188.664 286.4 188.893 287.049 189.035C287.699 189.162 288.407 189.225 289.173 189.225Z" fill="#0E3B2A"/>
<path d="M230.479 165.157V193.256H237.499V175.93C237.651 174.045 238.15 172.564 238.997 171.488C240.047 170.176 241.404 169.52 243.07 169.52C244.685 169.52 245.851 170.113 246.567 171.298C247.283 172.484 247.641 174.397 247.641 177.037V193.256H254.636V176.515C254.636 176.447 254.636 176.38 254.635 176.313C254.748 174.244 255.257 172.636 256.16 171.488C257.21 170.176 258.559 169.52 260.207 169.52C261.84 169.52 262.997 170.113 263.68 171.298C264.363 172.484 264.704 174.397 264.704 177.037V193.256H271.724V176.515C271.724 173.322 271.108 170.595 269.875 168.334C268.643 166.058 266.203 164.919 262.556 164.919C259.358 164.919 256.61 166.058 254.312 168.334C253.945 168.697 253.607 169.065 253.299 169.438C253.128 169.05 252.941 168.674 252.738 168.31C251.489 166.05 249.04 164.919 245.393 164.919C242.796 164.919 240.443 165.712 238.419 167.212C237.752 167.706 236.751 167.474 236.472 166.692L235.925 165.157H230.479Z" fill="#0E3B2A"/>
<path d="M217.733 172.37C218.033 171.232 218.416 170.031 218.882 168.766C219.348 167.501 219.848 166.221 220.381 164.924C220.947 163.628 221.497 162.411 222.03 161.273H226.577C226.277 162.506 225.96 163.818 225.627 165.209C225.328 166.569 225.044 167.912 224.778 169.24C224.511 170.568 224.295 171.785 224.128 172.892H218.083L217.733 172.37Z" fill="#0E3B2A"/>
<path d="M200.785 193.47C195.772 193.47 192.15 192.26 189.918 189.842C187.686 187.407 186.57 183.827 186.57 179.1C186.57 174.373 187.686 170.816 189.918 168.429C192.15 166.042 195.772 164.849 200.785 164.849C205.798 164.849 209.421 166.042 211.652 168.429C213.884 170.816 215 174.373 215 179.1C215 183.827 213.884 187.407 211.652 189.842C209.421 192.26 205.798 193.47 200.785 193.47ZM200.785 188.917C202.884 188.917 204.607 188.261 205.957 186.949C207.306 185.621 207.98 183.02 207.98 179.147C207.98 175.258 207.306 172.658 205.957 171.346C204.607 170.034 202.884 169.378 200.785 169.378C198.687 169.378 196.963 170.034 195.614 171.346C194.265 172.658 193.59 175.258 193.59 179.147C193.59 183.02 194.265 185.621 195.614 186.949C196.963 188.261 198.687 188.917 200.785 188.917Z" fill="#0E3B2A"/>
<path d="M157.588 193.267V161.244H164.425V175.476L175.998 161.244L184.847 161.244L171.776 177.279L184.919 193.267H176.07L167.252 182.525C166.302 181.368 164.425 182.04 164.425 183.537V193.267H157.588Z" fill="#0E3B2A"/>
<path fill-rule="evenodd" clip-rule="evenodd" d="M232.875 104.395C232.875 117.561 240.494 134.687 252.85 143.604C223.924 147.396 207.081 124.381 207.081 104.395C207.081 101.131 207.462 98.1614 208.043 95.531C210.096 86.2419 215.247 74.9137 207.127 69.9571C207.127 69.9571 209.902 64.5819 219.656 64.5819C229.41 64.5819 236.97 73.9912 236.97 81.7117C236.97 89.4322 232.875 91.2285 232.875 104.395Z" fill="#0E3B2A"/>
<path fill-rule="evenodd" clip-rule="evenodd" d="M278.541 114.044C278.541 117.673 276.779 122.584 269.396 124.563C262.014 126.542 255.013 130.786 253.259 138.81C247.565 133.309 245.288 125.406 247.827 118.129C250.596 109.738 257.45 105.511 263.486 104.588C275.068 103.085 278.325 109.269 278.541 114.044Z" fill="#2FBF84"/>
<path fill-rule="evenodd" clip-rule="evenodd" d="M286.604 76.4141C286.604 72.0793 285.347 68.0382 283.178 64.635C282.109 64.5545 281.03 64.5135 279.941 64.5135C257.86 64.5135 248.055 75.9927 244.786 80.491C241.518 84.9893 236.405 93.3937 236.892 106.556C237.084 111.763 239.161 119.347 242.885 125.315C242.418 110.464 253.168 102.224 267.647 98.1572C275.203 96.035 279.657 93.1841 282.541 89.137C285.099 85.5482 286.604 81.1569 286.604 76.4141Z" fill="#0E3B2A"/>
</svg>
